<svg id="svg" version="1.1" xmlns="http://www.w3.org/2000/svg" xmlns:xlink="http://www.w3.org/1999/xlink" width="400" height="225" viewBox="0, 0, 400,225"><g id="svgg"><path id="path0" d="M105.946 40.443 C 105.864 40.525,105.796 42.247,105.796 44.269 L 105.796 47.946 101.781 47.946 L 97.765 47.946 97.617 54.530 C 97.425 63.045,97.422 180.592,97.613 182.859 L 97.759 184.581 200.123 184.581 L 302.487 184.581 302.641 181.823 C 302.858 177.948,302.685 48.571,302.463 48.227 C 302.318 48.003,286.865 47.946,226.436 47.946 L 150.591 47.946 150.591 44.475 C 150.591 42.567,150.529 40.845,150.454 40.649 C 150.312 40.277,106.316 40.073,105.946 40.443 M228.025 91.503 L 228.025 100.619 200.000 100.619 L 171.975 100.619 171.975 91.503 L 171.975 82.386 200.000 82.386 L 228.025 82.386 228.025 91.503 M173.101 91.277 L 173.101 99.494 200.000 99.494 L 226.899 99.494 226.899 91.277 L 226.899 83.061 200.000 83.061 L 173.101 83.061 173.101 91.277 M218.297 91.334 L 218.360 93.866 200.007 93.866 L 181.654 93.866 181.654 91.427 C 181.654 90.086,181.723 88.921,181.806 88.838 C 181.889 88.754,190.119 88.712,200.095 88.744 L 218.233 88.801 218.297 91.334 M228.025 114.913 L 228.025 124.029 200.000 124.029 L 171.975 124.029 171.975 114.913 L 171.975 105.796 200.000 105.796 L 228.025 105.796 228.025 114.913 M173.252 106.621 C 173.169 106.704,173.101 110.401,173.101 114.838 L 173.101 122.904 200.003 122.904 L 226.905 122.904 226.846 114.744 L 226.787 106.584 200.095 106.527 C 185.414 106.495,173.335 106.538,173.252 106.621 M188.980 112.555 C 190.845 113.708,190.493 116.678,188.418 117.300 C 187.270 117.644,185.865 117.278,185.357 116.503 C 183.687 113.954,186.422 110.974,188.980 112.555 M195.388 112.698 C 196.274 113.444,196.575 114.206,196.397 115.257 C 195.865 118.408,191.109 118.070,191.109 114.881 C 191.109 112.517,193.639 111.227,195.388 112.698 M201.750 112.791 C 203.600 114.316,202.417 117.501,200.000 117.501 C 197.610 117.501,196.461 114.512,198.215 112.857 C 199.313 111.822,200.546 111.798,201.750 112.791 M207.519 112.425 C 210.148 113.785,208.844 117.826,205.903 117.432 C 203.672 117.132,202.816 114.285,204.510 112.798 C 205.407 112.010,206.463 111.879,207.519 112.425 M213.966 112.555 C 215.831 113.708,215.479 116.678,213.404 117.300 C 212.256 117.644,210.851 117.278,210.343 116.503 C 208.673 113.954,211.408 110.974,213.966 112.555 M215.082 135.959 L 215.082 142.375 200.000 142.375 L 184.918 142.375 184.858 136.188 C 184.825 132.785,184.848 129.872,184.908 129.715 C 184.996 129.486,188.056 129.440,200.050 129.486 L 215.082 129.544 215.082 135.959 " stroke="none" fill="#f7f6f7" fill-rule="evenodd"></path><path id="path1" d="M0.000 112.549 L 0.000 225.098 200.000 225.098 L 400.000 225.098 400.000 112.549 L 400.000 0.000 200.000 0.000 L 0.000 0.000 0.000 112.549 M302.702 110.917 L 302.645 184.918 200.248 184.975 C 124.735 185.017,97.772 184.965,97.547 184.779 C 97.216 184.504,97.080 62.519,97.392 45.189 L 97.541 36.916 200.149 36.916 L 302.758 36.916 302.702 110.917 M181.880 91.277 L 181.880 93.641 200.000 93.641 L 218.120 93.641 218.120 91.277 L 218.120 88.914 200.000 88.914 L 181.880 88.914 181.880 91.277 M185.719 113.056 C 184.161 114.718,185.245 117.276,187.507 117.276 C 189.034 117.276,189.971 116.320,189.978 114.752 C 189.989 112.452,187.291 111.378,185.719 113.056 M191.992 112.982 C 191.015 113.959,191.034 115.691,192.033 116.623 C 193.625 118.111,196.286 116.970,196.286 114.800 C 196.286 112.624,193.521 111.453,191.992 112.982 M198.485 112.767 C 196.545 114.293,197.579 117.276,200.048 117.276 C 201.654 117.276,202.874 115.743,202.489 114.209 C 202.070 112.540,199.809 111.725,198.485 112.767 M204.479 113.089 C 202.847 114.722,203.956 117.276,206.298 117.276 C 207.837 117.276,208.666 116.409,208.666 114.800 C 208.666 112.410,206.177 111.392,204.479 113.089 M210.813 113.023 C 209.560 114.123,209.833 116.363,211.303 117.032 C 213.145 117.871,214.969 116.756,214.969 114.791 C 214.969 112.477,212.588 111.464,210.813 113.023 M302.757 186.719 L 302.757 188.182 200.113 188.182 L 97.468 188.182 97.468 186.719 L 97.468 185.256 200.113 185.256 L 302.757 185.256 302.757 186.719 " stroke="none" fill="#64737c" fill-rule="evenodd"></path><path id="path2" d="M185.031 135.959 L 185.031 142.262 200.000 142.262 L 214.969 142.262 214.969 135.959 L 214.969 129.657 200.000 129.657 L 185.031 129.657 185.031 135.959 " stroke="none" fill="#34acd4" fill-rule="evenodd"></path><path id="path3" d="M97.468 186.719 L 97.468 188.182 200.113 188.182 L 302.757 188.182 302.757 186.719 L 302.757 185.256 200.113 185.256 L 97.468 185.256 97.468 186.719 " stroke="none" fill="#5c6474" fill-rule="evenodd"></path><path id="path4" d="M97.392 45.189 C 97.080 62.519,97.216 184.504,97.547 184.779 C 97.772 184.965,124.735 185.017,200.248 184.975 L 302.645 184.918 302.664 183.343 L 302.682 181.767 302.597 183.174 L 302.511 184.581 200.135 184.581 L 97.759 184.581 97.613 182.859 C 97.422 180.592,97.425 63.045,97.617 54.530 L 97.765 47.946 101.775 47.946 L 105.785 47.946 105.847 44.176 L 105.909 40.405 128.067 40.348 C 145.645 40.302,150.262 40.349,150.405 40.573 C 150.503 40.728,150.586 42.451,150.587 44.400 L 150.591 47.945 226.505 48.002 L 302.420 48.059 302.539 52.786 C 302.628 56.306,302.671 54.885,302.708 47.214 L 302.757 36.916 200.149 36.916 L 97.541 36.916 97.392 45.189 M171.975 91.503 L 171.975 100.619 200.000 100.619 L 228.025 100.619 228.025 91.503 L 228.025 82.386 200.000 82.386 L 171.975 82.386 171.975 91.503 M226.899 91.277 L 226.899 99.494 200.000 99.494 L 173.101 99.494 173.101 91.277 L 173.101 83.061 200.000 83.061 L 226.899 83.061 226.899 91.277 M181.806 88.838 C 181.723 88.921,181.654 90.086,181.654 91.427 L 181.654 93.866 200.007 93.866 L 218.360 93.866 218.297 91.334 L 218.233 88.801 200.095 88.744 C 190.119 88.712,181.889 88.754,181.806 88.838 M218.120 91.277 L 218.120 93.641 200.000 93.641 L 181.880 93.641 181.880 91.277 L 181.880 88.914 200.000 88.914 L 218.120 88.914 218.120 91.277 M171.975 114.913 L 171.975 124.029 200.000 124.029 L 228.025 124.029 228.025 114.913 L 228.025 105.796 200.000 105.796 L 171.975 105.796 171.975 114.913 M226.846 114.744 L 226.905 122.904 200.003 122.904 L 173.101 122.904 173.101 114.838 C 173.101 110.401,173.169 106.704,173.252 106.621 C 173.335 106.538,185.414 106.495,200.095 106.527 L 226.787 106.584 226.846 114.744 M187.001 112.258 C 187.279 112.312,187.735 112.312,188.014 112.258 C 188.292 112.204,188.064 112.160,187.507 112.160 C 186.950 112.160,186.722 112.204,187.001 112.258 M193.897 112.312 C 194.742 112.429,195.146 112.631,195.641 113.186 C 195.996 113.582,196.286 113.815,196.286 113.702 C 196.286 113.099,194.671 112.100,193.746 112.129 L 192.797 112.159 193.897 112.312 M198.909 112.268 C 198.852 112.361,199.343 112.437,200.000 112.437 C 200.657 112.437,201.148 112.361,201.091 112.268 C 201.033 112.175,200.543 112.099,200.000 112.099 C 199.457 112.099,198.967 112.175,198.909 112.268 M204.510 112.798 C 204.072 113.182,203.714 113.589,203.714 113.702 C 203.714 113.815,204.004 113.582,204.359 113.186 C 204.854 112.631,205.258 112.429,206.103 112.312 L 207.203 112.159 206.254 112.129 C 205.489 112.105,205.151 112.235,204.510 112.798 M211.121 112.474 C 210.800 112.673,210.407 113.050,210.249 113.312 C 210.046 113.645,210.172 113.589,210.669 113.122 C 211.157 112.663,211.707 112.410,212.441 112.308 L 213.506 112.159 212.606 112.135 C 212.110 112.122,211.442 112.274,211.121 112.474 M197.878 113.142 C 197.621 113.469,197.414 113.848,197.418 113.986 C 197.422 114.125,197.537 114.035,197.675 113.787 C 197.812 113.540,198.078 113.160,198.266 112.943 C 198.453 112.727,198.548 112.549,198.476 112.549 C 198.403 112.549,198.134 112.816,197.878 113.142 M201.952 113.250 C 202.240 113.698,202.513 113.965,202.559 113.845 C 202.605 113.725,202.369 113.359,202.035 113.031 L 201.427 112.437 201.952 113.250 M191.259 113.600 C 191.052 113.806,191.069 115.874,191.277 116.003 C 191.370 116.061,191.446 115.510,191.446 114.779 C 191.446 114.048,191.438 113.450,191.427 113.450 C 191.417 113.450,191.341 113.517,191.259 113.600 M208.633 114.622 C 208.696 115.504,208.606 115.907,208.223 116.458 L 207.733 117.164 208.312 116.532 C 208.885 115.907,209.170 113.874,208.723 113.597 C 208.630 113.539,208.590 114.000,208.633 114.622 M184.858 114.800 C 184.858 115.234,184.904 115.411,184.961 115.194 C 185.018 114.977,185.018 114.623,184.961 114.406 C 184.904 114.190,184.858 114.367,184.858 114.800 M190.040 114.913 C 190.042 115.408,190.088 115.584,190.142 115.304 C 190.196 115.024,190.194 114.619,190.138 114.404 C 190.081 114.188,190.037 114.418,190.040 114.913 M209.844 114.800 C 209.844 115.234,209.890 115.411,209.947 115.194 C 210.004 114.977,210.004 114.623,209.947 114.406 C 209.890 114.190,209.844 114.367,209.844 114.800 M215.026 114.913 C 215.028 115.408,215.074 115.584,215.128 115.304 C 215.182 115.024,215.180 114.619,215.124 114.404 C 215.067 114.188,215.023 114.418,215.026 114.913 M197.426 115.519 C 197.418 115.729,197.639 116.139,197.918 116.431 C 198.196 116.722,198.303 116.802,198.155 116.607 C 198.007 116.413,197.785 116.003,197.663 115.696 C 197.515 115.325,197.435 115.266,197.426 115.519 M201.964 116.329 L 201.451 117.164 202.020 116.532 C 202.333 116.185,202.589 115.805,202.589 115.688 C 202.589 115.357,202.513 115.435,201.964 116.329 M195.461 116.517 C 195.069 116.935,194.837 117.276,194.945 117.276 C 195.180 117.276,196.286 116.117,196.286 115.872 C 196.286 115.641,196.275 115.650,195.461 116.517 M203.714 115.903 C 203.714 116.112,205.039 117.388,205.123 117.260 C 205.157 117.207,204.854 116.843,204.450 116.451 C 204.045 116.060,203.714 115.813,203.714 115.903 M210.023 115.880 C 210.015 116.262,211.040 117.281,211.414 117.261 C 211.574 117.253,211.497 117.145,211.242 117.021 C 210.987 116.897,210.609 116.524,210.403 116.192 C 210.197 115.860,210.026 115.719,210.023 115.880 M185.230 116.314 C 185.511 116.854,186.337 117.396,186.551 117.182 C 186.623 117.110,186.559 117.051,186.408 117.051 C 186.258 117.051,185.872 116.773,185.552 116.432 C 185.069 115.920,185.013 115.899,185.230 116.314 M189.541 116.361 C 189.413 116.600,189.098 116.862,188.841 116.944 C 188.584 117.026,188.423 117.142,188.484 117.203 C 188.670 117.388,189.509 116.842,189.761 116.371 C 189.892 116.126,189.948 115.926,189.886 115.926 C 189.825 115.926,189.669 116.121,189.541 116.361 M214.191 116.645 C 213.666 117.195,213.629 117.286,214.017 117.079 C 214.287 116.934,214.616 116.616,214.747 116.371 C 215.064 115.777,214.979 115.819,214.191 116.645 M187.113 117.431 C 187.330 117.488,187.684 117.488,187.901 117.431 C 188.118 117.375,187.940 117.329,187.507 117.329 C 187.074 117.329,186.896 117.375,187.113 117.431 M193.306 117.436 C 193.586 117.489,193.991 117.487,194.206 117.431 C 194.422 117.375,194.192 117.331,193.697 117.333 C 193.202 117.336,193.026 117.382,193.306 117.436 M199.609 117.436 C 199.889 117.489,200.294 117.487,200.509 117.431 C 200.724 117.375,200.495 117.331,200.000 117.333 C 199.505 117.336,199.329 117.382,199.609 117.436 M205.911 117.436 C 206.191 117.489,206.597 117.487,206.812 117.431 C 207.027 117.375,206.798 117.331,206.303 117.333 C 205.808 117.336,205.631 117.382,205.911 117.436 M212.099 117.431 C 212.316 117.488,212.670 117.488,212.887 117.431 C 213.104 117.375,212.926 117.329,212.493 117.329 C 212.060 117.329,211.882 117.375,212.099 117.431 M184.908 129.715 C 184.848 129.872,184.825 132.785,184.858 136.188 L 184.918 142.375 200.000 142.375 L 215.082 142.375 215.082 135.959 L 215.082 129.544 200.050 129.486 C 188.056 129.440,184.996 129.486,184.908 129.715 M214.969 135.959 L 214.969 142.262 200.000 142.262 L 185.031 142.262 185.031 135.959 L 185.031 129.657 200.000 129.657 L 214.969 129.657 214.969 135.959 " stroke="none" fill="#9cd4ec" fill-rule="evenodd"></path></g></svg>