<svg id="svg" version="1.1" xmlns="http://www.w3.org/2000/svg" xmlns:xlink="http://www.w3.org/1999/xlink" width="400" height="225" viewBox="0, 0, 400,225"><g id="svgg"><path id="path0" d="M100.094 38.867 C 100.011 38.949,99.944 60.778,99.944 87.375 L 99.944 135.733 133.652 135.790 L 167.361 135.847 167.361 157.231 L 167.361 178.616 164.772 178.616 L 162.183 178.616 162.071 159.932 L 161.958 141.249 144.288 141.137 C 134.569 141.075,120.616 141.059,113.280 141.103 L 99.941 141.181 99.999 162.149 L 100.056 183.118 200.000 183.118 L 299.944 183.118 299.944 110.974 L 299.944 38.829 200.094 38.773 C 145.177 38.742,100.177 38.784,100.094 38.867 M238.774 119.358 L 238.717 180.191 236.128 180.191 L 233.540 180.191 233.500 119.358 L 233.460 58.526 236.145 58.526 L 238.830 58.526 238.774 119.358 M164.772 70.681 L 164.772 76.533 156.443 76.533 L 148.115 76.533 148.115 70.681 L 148.115 64.828 156.443 64.828 L 164.772 64.828 164.772 70.681 M139.111 70.568 L 139.111 71.356 125.830 71.356 L 112.549 71.356 112.549 70.568 L 112.549 69.781 125.830 69.781 L 139.111 69.781 139.111 70.568 M202.064 90.588 C 202.414 90.766,203.258 91.134,203.939 91.405 C 208.537 93.239,211.505 98.093,211.073 103.076 C 210.812 106.085,208.774 111.243,204.587 119.493 C 203.119 122.384,201.812 125.144,201.682 125.627 C 201.552 126.110,201.365 126.505,201.265 126.505 C 201.166 126.505,200.951 126.911,200.788 127.406 C 200.624 127.901,200.417 128.306,200.328 128.306 C 200.238 128.306,200.112 128.509,200.047 128.756 C 199.798 129.709,198.727 129.253,198.327 128.025 C 198.176 127.560,197.969 127.181,197.869 127.181 C 197.768 127.181,197.622 126.927,197.544 126.618 C 197.466 126.308,197.303 126.055,197.182 126.055 C 197.061 126.055,196.960 125.777,196.959 125.436 C 196.958 125.096,196.730 124.393,196.452 123.876 C 192.364 116.240,189.249 109.360,188.115 105.459 C 186.336 99.341,190.035 92.539,196.005 90.952 C 196.531 90.812,196.961 90.600,196.961 90.481 C 196.961 90.123,201.329 90.215,202.064 90.588 M197.524 97.842 C 193.037 100.207,194.883 106.676,199.907 106.194 C 204.098 105.791,205.215 99.832,201.459 97.916 C 200.390 97.370,198.486 97.334,197.524 97.842 " stroke="none" fill="#f1ead4" fill-rule="evenodd"></path><path id="path1" d="M0.000 112.549 L 0.000 225.098 200.000 225.098 L 400.000 225.098 400.000 112.549 L 400.000 0.000 200.000 0.000 L 0.000 0.000 0.000 112.549 M300.000 112.606 L 300.057 186.382 200.004 186.382 L 99.951 186.382 99.936 163.703 C 99.897 106.554,99.975 39.073,100.080 38.904 C 100.144 38.801,145.139 38.742,200.070 38.773 L 299.944 38.829 300.000 112.606 M119.133 69.949 C 122.817 69.984,128.844 69.984,132.527 69.949 C 136.210 69.915,133.196 69.886,125.830 69.886 C 118.464 69.886,115.450 69.915,119.133 69.949 " stroke="none" fill="#54bbb4" fill-rule="evenodd"></path><path id="path2" d="M233.500 119.358 L 233.540 180.191 236.128 180.191 L 238.717 180.191 238.774 119.358 L 238.830 58.526 236.145 58.526 L 233.460 58.526 233.500 119.358 M196.961 90.481 C 196.961 90.600,196.531 90.812,196.005 90.952 C 190.035 92.539,186.336 99.341,188.115 105.459 C 189.249 109.360,192.364 116.240,196.452 123.876 C 196.730 124.393,196.958 125.096,196.959 125.436 C 196.960 125.777,197.061 126.055,197.182 126.055 C 197.303 126.055,197.466 126.308,197.544 126.618 C 197.622 126.927,197.768 127.181,197.869 127.181 C 197.969 127.181,198.176 127.560,198.327 128.025 C 198.727 129.253,199.798 129.709,200.047 128.756 C 200.112 128.509,200.238 128.306,200.328 128.306 C 200.417 128.306,200.624 127.901,200.788 127.406 C 200.951 126.911,201.166 126.505,201.265 126.505 C 201.365 126.505,201.552 126.110,201.682 125.627 C 201.812 125.144,203.119 122.384,204.587 119.493 C 208.774 111.243,210.812 106.085,211.073 103.076 C 211.505 98.093,208.537 93.239,203.939 91.405 C 203.258 91.134,202.414 90.766,202.064 90.588 C 201.329 90.215,196.961 90.123,196.961 90.481 M201.459 97.916 C 205.215 99.832,204.098 105.791,199.907 106.194 C 194.883 106.676,193.037 100.207,197.524 97.842 C 198.486 97.334,200.390 97.370,201.459 97.916 M99.944 138.423 L 99.944 141.114 130.823 141.121 C 147.807 141.126,161.785 141.211,161.886 141.312 C 161.986 141.412,162.094 149.847,162.126 160.055 L 162.183 178.616 164.772 178.616 L 167.361 178.616 167.361 157.231 L 167.361 135.847 133.652 135.790 L 99.944 135.733 99.944 138.423 " stroke="none" fill="#ea8474" fill-rule="evenodd"></path><path id="path3" d="M112.549 70.683 L 112.549 71.360 125.774 71.302 L 138.998 71.244 139.070 70.625 L 139.141 70.006 125.845 70.006 L 112.549 70.006 112.549 70.683 M99.804 138.436 C 99.804 139.859,99.840 140.442,99.885 139.730 C 99.930 139.018,99.930 137.853,99.885 137.141 C 99.840 136.429,99.804 137.012,99.804 138.436 M99.944 184.806 L 99.944 186.382 200.000 186.382 L 300.056 186.382 300.056 184.806 L 300.056 183.230 200.000 183.230 L 99.944 183.230 99.944 184.806 " stroke="none" fill="#4caca4" fill-rule="evenodd"></path><path id="path4" d="M148.115 70.681 L 148.115 76.533 156.443 76.533 L 164.772 76.533 164.772 70.681 L 164.772 64.828 156.443 64.828 L 148.115 64.828 148.115 70.681 " stroke="none" fill="#54b4d4" fill-rule="evenodd"></path></g></svg>