<svg id="svg" version="1.1" xmlns="http://www.w3.org/2000/svg" xmlns:xlink="http://www.w3.org/1999/xlink" width="400" height="225" viewBox="0, 0, 400,225"><g id="svgg"><path id="path0" d="M0.112 112.549 C 0.112 174.513,0.137 199.862,0.169 168.880 C 0.200 137.898,0.200 87.200,0.169 56.218 C 0.137 25.236,0.112 50.585,0.112 112.549 M108.723 46.019 C 108.723 47.931,108.636 49.549,108.530 49.614 C 108.425 49.679,106.551 49.744,104.366 49.757 L 100.393 49.782 100.450 116.225 L 100.506 182.667 200.394 182.724 L 300.282 182.780 300.225 116.320 L 300.169 49.859 226.111 49.747 L 152.054 49.634 151.992 46.089 L 151.930 42.544 130.326 42.544 L 108.723 42.544 108.723 46.019 M216.432 98.432 L 216.432 119.317 169.394 119.306 C 143.523 119.300,122.302 119.221,122.236 119.130 C 122.170 119.039,122.144 109.620,122.178 98.199 L 122.240 77.433 169.336 77.490 L 216.432 77.546 216.432 98.432 M278.311 77.569 C 278.688 77.713,278.885 114.494,278.527 117.919 L 278.383 119.302 252.191 119.302 C 227.399 119.302,225.999 119.281,225.992 118.908 C 225.923 114.788,226.046 77.766,226.129 77.631 C 226.262 77.416,277.754 77.355,278.311 77.569 M226.453 117.895 C 226.461 118.241,227.575 119.137,227.575 118.798 C 227.575 118.618,227.389 118.304,227.163 118.099 C 226.723 117.701,226.447 117.621,226.453 117.895 M277.676 118.327 C 277.596 118.533,277.636 118.807,277.764 118.935 C 277.924 119.095,277.997 118.977,277.997 118.559 C 277.997 117.865,277.884 117.784,277.676 118.327 M215.293 128.677 C 216.182 128.799,216.337 128.890,216.246 129.239 C 216.186 129.469,216.229 129.713,216.341 129.782 C 216.566 129.922,216.627 169.284,216.403 170.119 L 216.267 170.626 169.245 170.569 L 122.224 170.512 122.224 149.729 C 122.224 138.298,122.281 128.853,122.352 128.739 C 122.497 128.503,213.585 128.443,215.293 128.677 M278.372 128.831 C 278.584 129.043,278.765 168.760,278.559 169.893 L 278.426 170.625 252.156 170.625 L 225.886 170.625 225.886 149.701 L 225.886 128.777 226.787 128.691 C 228.631 128.517,278.192 128.651,278.372 128.831 " stroke="none" fill="#eaebef" fill-rule="evenodd"></path><path id="path1" d="M102.251 38.884 L 100.394 38.960 100.394 44.337 C 100.394 49.129,100.434 49.722,100.761 49.787 C 100.963 49.827,102.812 49.809,104.869 49.747 L 108.610 49.634 108.672 46.089 L 108.734 42.544 130.332 42.544 L 151.930 42.544 151.992 46.089 L 152.054 49.634 226.168 49.747 L 300.281 49.859 300.281 44.427 L 300.281 38.995 299.775 38.859 C 299.259 38.721,105.646 38.746,102.251 38.884 M100.280 119.415 C 100.280 152.966,100.306 166.658,100.338 149.841 C 100.369 133.025,100.369 105.574,100.338 88.839 C 100.306 72.105,100.280 85.864,100.280 119.415 M122.178 98.199 C 122.144 109.620,122.170 119.039,122.236 119.130 C 122.302 119.221,143.523 119.300,169.394 119.306 L 216.432 119.317 216.432 98.432 L 216.432 77.546 169.336 77.490 L 122.240 77.433 122.178 98.199 M226.129 77.631 C 226.046 77.766,225.923 114.788,225.992 118.908 C 225.999 119.281,227.399 119.302,252.191 119.302 L 278.383 119.302 278.527 117.919 C 278.885 114.494,278.688 77.713,278.311 77.569 C 277.754 77.355,226.262 77.416,226.129 77.631 M227.163 118.099 C 227.389 118.304,227.575 118.618,227.575 118.798 C 227.575 119.028,227.410 118.968,227.016 118.594 C 226.176 117.798,226.314 117.331,227.163 118.099 M277.997 118.559 C 277.997 118.977,277.924 119.095,277.764 118.935 C 277.636 118.807,277.596 118.533,277.676 118.327 C 277.884 117.784,277.997 117.865,277.997 118.559 M122.352 128.739 C 122.281 128.853,122.224 138.298,122.224 149.729 L 122.224 170.512 169.245 170.569 L 216.267 170.626 216.403 170.119 C 216.627 169.284,216.566 129.922,216.341 129.782 C 216.229 129.713,216.186 129.469,216.246 129.239 C 216.337 128.890,216.182 128.799,215.293 128.677 C 213.585 128.443,122.497 128.503,122.352 128.739 M226.787 128.691 L 225.886 128.777 225.886 149.701 L 225.886 170.625 252.156 170.625 L 278.426 170.625 278.559 169.893 C 278.765 168.760,278.584 129.043,278.372 128.831 C 278.192 128.651,228.631 128.517,226.787 128.691 M100.394 182.836 C 100.394 182.929,145.394 182.980,200.394 182.949 C 255.394 182.919,284.136 182.868,264.266 182.837 C 167.249 182.684,100.394 182.684,100.394 182.836 " stroke="none" fill="#d1d4dc" fill-rule="evenodd"></path><path id="path2" d="M0.337 112.549 C 0.337 174.513,0.362 199.862,0.394 168.880 C 0.425 137.898,0.425 87.200,0.394 56.218 C 0.362 25.236,0.337 50.585,0.337 112.549 M100.225 38.678 C 100.000 38.820,99.954 53.431,100.000 110.987 L 100.056 183.118 200.180 183.230 C 263.274 183.301,300.383 183.264,300.518 183.129 C 300.860 182.787,300.804 39.105,300.461 38.762 C 300.147 38.448,100.719 38.364,100.225 38.678 M299.775 38.859 L 300.281 38.995 300.281 111.000 L 300.281 183.005 200.371 183.005 L 100.461 183.005 100.315 180.945 C 100.123 178.241,100.126 72.574,100.318 53.638 L 100.468 38.959 102.288 38.884 C 105.632 38.746,299.261 38.721,299.775 38.859 " stroke="none" fill="#78b9cb" fill-rule="evenodd"></path><path id="path3" d="M0.562 112.549 C 0.562 174.513,0.588 199.862,0.619 168.880 C 0.650 137.898,0.650 87.200,0.619 56.218 C 0.588 25.236,0.562 50.585,0.562 112.549 M101.069 38.323 C 101.069 38.416,145.816 38.468,200.506 38.439 C 255.197 38.410,297.158 38.360,293.754 38.327 C 278.094 38.178,101.069 38.174,101.069 38.323 M300.732 110.936 C 300.732 168.621,300.675 183.230,300.450 183.231 C 300.295 183.231,255.118 183.231,200.056 183.230 C 131.294 183.229,99.944 183.302,99.944 183.462 C 99.944 183.590,100.095 183.753,100.280 183.824 C 100.465 183.895,100.565 184.036,100.503 184.137 C 100.440 184.238,100.334 184.785,100.268 185.351 L 100.146 186.382 200.204 186.382 L 300.261 186.382 300.411 185.583 C 300.493 185.144,300.506 184.731,300.440 184.664 C 300.374 184.598,300.462 184.203,300.636 183.786 C 300.951 183.033,301.161 39.071,300.848 38.758 C 300.784 38.694,300.732 71.174,300.732 110.936 M99.830 110.861 C 99.830 150.478,99.856 166.652,99.887 146.802 C 99.919 126.953,99.919 94.538,99.887 74.771 C 99.856 55.003,99.830 71.244,99.830 110.861 " stroke="none" fill="#369cbf" fill-rule="evenodd"></path><path id="path4" d="M0.675 112.549 L 0.675 225.098 200.338 225.098 L 400.000 225.098 400.000 112.549 L 400.000 0.000 200.338 0.000 L 0.675 0.000 0.675 112.549 M300.215 38.614 C 300.499 38.800,300.735 38.874,300.738 38.778 C 300.742 38.683,300.818 38.756,300.907 38.942 C 301.122 39.391,301.002 183.285,300.786 183.152 C 300.635 183.058,300.565 183.396,300.504 184.524 C 300.492 184.741,300.433 185.248,300.372 185.650 L 300.261 186.382 200.204 186.382 L 100.146 186.382 100.268 185.351 C 100.334 184.785,100.440 184.238,100.503 184.137 C 100.565 184.036,100.455 183.891,100.257 183.815 C 100.056 183.738,99.953 183.531,100.023 183.348 C 100.092 183.167,100.052 182.960,99.934 182.886 C 99.798 182.802,99.719 156.346,99.719 110.828 L 99.719 38.903 100.394 38.648 C 100.765 38.508,101.069 38.339,101.069 38.274 C 101.069 37.939,299.703 38.278,300.215 38.614 " stroke="none" fill="#34acd4" fill-rule="evenodd"></path></g></svg>