<svg id="svg" version="1.1" xmlns="http://www.w3.org/2000/svg" xmlns:xlink="http://www.w3.org/1999/xlink" width="400" height="225" viewBox="0, 0, 400,225"><g id="svgg"><path id="path0" d="M97.243 47.046 L 97.243 57.175 200.000 57.175 L 302.757 57.175 302.757 47.046 L 302.757 36.916 200.000 36.916 L 97.243 36.916 97.243 47.046 M115.250 68.732 C 115.250 72.735,115.317 77.699,115.398 79.761 L 115.546 83.512 126.280 83.512 L 137.014 83.512 137.162 79.761 C 137.244 77.699,137.310 72.735,137.310 68.732 L 137.310 61.452 126.280 61.452 L 115.250 61.452 115.250 68.732 M123.588 69.837 C 126.534 71.323,125.512 75.637,122.215 75.632 C 118.076 75.625,118.097 69.581,122.237 69.350 C 122.427 69.339,123.035 69.558,123.588 69.837 M132.935 70.015 C 135.409 71.544,134.115 75.633,131.157 75.633 C 128.788 75.633,127.279 72.838,128.594 70.886 C 129.530 69.497,131.469 69.108,132.935 70.015 M97.243 137.310 L 97.243 185.031 200.000 185.031 L 302.757 185.031 302.757 137.310 L 302.757 89.589 200.000 89.589 L 97.243 89.589 97.243 137.310 M137.310 110.766 C 142.779 113.239,141.233 121.203,135.284 121.200 C 132.166 121.198,129.874 118.876,129.887 115.729 C 129.902 111.907,133.908 109.228,137.310 110.766 M181.108 110.928 C 186.147 113.519,184.374 121.178,178.731 121.196 C 172.165 121.217,171.100 112.753,177.378 110.431 C 178.037 110.187,180.237 110.480,181.108 110.928 M223.822 110.686 C 227.565 112.027,228.655 116.810,225.856 119.609 C 223.685 121.780,220.136 121.778,218.077 119.604 C 214.145 115.452,218.455 108.762,223.822 110.686 M267.530 110.831 C 272.866 113.335,271.252 121.153,265.391 121.191 C 259.521 121.230,257.846 113.344,263.194 110.854 C 264.707 110.150,266.063 110.143,267.530 110.831 M137.697 154.722 C 143.397 157.670,140.186 166.475,133.999 164.863 C 127.612 163.199,129.054 153.852,135.632 154.271 C 136.380 154.319,137.310 154.522,137.697 154.722 M180.319 154.418 C 181.479 154.740,182.984 156.130,183.596 157.444 C 185.984 162.573,179.297 167.500,175.098 163.706 C 170.686 159.720,174.565 152.819,180.319 154.418 M223.635 154.441 C 228.009 155.542,228.737 161.375,224.860 164.268 C 221.796 166.556,216.565 163.755,216.551 159.820 C 216.537 155.911,219.758 153.465,223.635 154.441 M267.249 154.514 C 271.447 156.012,272.035 161.973,268.205 164.219 C 264.447 166.422,259.989 163.918,259.989 159.605 C 259.989 155.792,263.645 153.228,267.249 154.514 " stroke="none" fill="#e2e0e9" fill-rule="evenodd"></path><path id="path1" d="M0.000 112.549 L 0.000 225.098 200.000 225.098 L 400.000 225.098 400.000 112.549 L 400.000 0.000 200.000 0.000 L 0.000 0.000 0.000 112.549 M302.933 110.917 L 303.008 185.031 200.000 185.031 L 96.991 185.031 97.092 110.917 C 97.148 70.155,97.204 36.778,97.218 36.747 C 97.231 36.716,143.506 36.716,200.051 36.747 L 302.859 36.804 302.933 110.917 " stroke="none" fill="#645b84" fill-rule="evenodd"></path><path id="path2" d="M97.243 83.962 L 97.243 89.364 200.000 89.364 L 302.757 89.364 302.757 83.962 L 302.757 78.559 220.034 78.559 L 137.310 78.559 137.310 81.148 L 137.310 83.737 126.280 83.737 L 115.250 83.737 115.250 81.148 L 115.250 78.559 106.246 78.559 L 97.243 78.559 97.243 83.962 " stroke="none" fill="#555a69" fill-rule="evenodd"></path><path id="path3" d="M97.120 36.972 C 97.061 37.127,97.040 41.711,97.074 47.158 L 97.135 57.062 97.189 46.989 L 97.243 36.916 200.000 36.916 L 302.757 36.916 302.757 47.046 L 302.757 57.175 200.000 57.175 L 97.243 57.175 97.243 67.867 L 97.243 78.559 106.239 78.559 L 115.236 78.559 115.299 81.092 L 115.363 83.624 126.280 83.624 L 137.198 83.624 137.261 81.092 L 137.325 78.559 220.012 78.559 L 302.700 78.559 302.867 57.871 C 302.960 46.493,302.967 37.072,302.883 36.937 C 302.647 36.555,97.267 36.590,97.120 36.972 M137.310 68.732 C 137.310 72.735,137.244 77.699,137.162 79.761 L 137.014 83.512 126.280 83.512 L 115.546 83.512 115.398 79.761 C 115.317 77.699,115.250 72.735,115.250 68.732 L 115.250 61.452 126.280 61.452 L 137.310 61.452 137.310 68.732 M129.663 69.843 C 127.693 70.841,127.612 73.828,129.521 75.135 C 131.880 76.752,135.092 74.177,134.067 71.492 C 133.422 69.803,131.308 69.011,129.663 69.843 M97.122 89.645 C 97.063 89.800,97.041 111.351,97.073 137.535 L 97.131 185.144 97.187 137.366 L 97.243 89.589 199.999 89.589 L 302.756 89.589 302.814 137.254 L 302.872 184.918 302.871 137.198 L 302.870 89.477 200.049 89.420 C 117.911 89.375,97.207 89.420,97.122 89.645 M133.146 110.831 C 131.004 111.836,129.895 113.502,129.887 115.729 C 129.864 121.613,137.802 123.367,140.254 118.020 C 142.279 113.604,137.512 108.782,133.146 110.831 M177.378 110.431 C 171.100 112.753,172.165 121.217,178.731 121.196 C 185.640 121.174,185.868 110.849,178.970 110.390 C 178.280 110.344,177.563 110.363,177.378 110.431 M220.595 110.509 C 214.542 112.350,215.661 121.199,221.947 121.199 C 226.973 121.199,229.305 115.344,225.681 111.825 C 224.406 110.586,222.209 110.018,220.595 110.509 M263.194 110.854 C 257.846 113.344,259.521 121.230,265.391 121.191 C 271.252 121.153,272.866 113.335,267.530 110.831 C 266.063 110.143,264.707 110.150,263.194 110.854 M133.427 154.500 C 128.415 156.370,128.810 163.511,133.999 164.863 C 139.303 166.244,143.021 159.508,139.051 155.709 C 137.645 154.363,135.201 153.838,133.427 154.500 M176.806 154.432 C 174.827 155.007,173.245 157.301,173.245 159.595 C 173.245 164.278,178.713 166.792,182.153 163.691 C 186.602 159.680,182.598 152.748,176.806 154.432 M220.129 154.500 C 215.916 156.006,215.279 161.797,219.063 164.197 C 220.691 165.229,223.526 165.264,224.860 164.268 C 230.150 160.320,226.267 152.306,220.129 154.500 M263.590 154.458 C 259.685 155.574,258.693 161.142,261.927 163.792 C 266.424 167.477,272.708 162.489,270.214 157.216 C 269.064 154.786,266.370 153.664,263.590 154.458 " stroke="none" fill="#9da3a6" fill-rule="evenodd"></path><path id="path4" d="M120.660 69.843 C 118.677 70.846,118.604 73.986,120.534 75.179 C 123.119 76.777,126.263 74.064,125.021 71.309 C 124.318 69.749,122.231 69.048,120.660 69.843 " stroke="none" fill="#fc4e9d" fill-rule="evenodd"></path></g></svg>