<svg id="svg" version="1.1" xmlns="http://www.w3.org/2000/svg" xmlns:xlink="http://www.w3.org/1999/xlink" width="400" height="225" viewBox="0, 0, 400,225"><g id="svgg"><path id="path0" d="M107.523 41.567 C 107.440 41.650,107.372 43.322,107.372 45.282 L 107.372 48.846 103.357 48.846 L 99.341 48.846 99.192 55.974 C 99.000 65.192,98.997 178.910,99.190 181.620 L 99.336 183.680 200.371 183.680 L 301.407 183.680 301.407 116.263 L 301.407 48.846 226.567 48.846 L 151.728 48.846 151.666 45.189 L 151.604 41.531 129.639 41.473 C 117.558 41.442,107.606 41.484,107.523 41.567 M180.529 90.602 L 180.529 98.593 175.127 98.593 L 169.724 98.593 169.724 90.602 L 169.724 82.611 175.127 82.611 L 180.529 82.611 180.529 90.602 M220.318 90.546 L 220.259 98.481 217.558 98.481 L 214.856 98.481 214.797 90.546 L 214.738 82.611 217.558 82.611 L 220.377 82.611 220.318 90.546 M191.221 93.191 L 191.221 98.481 187.113 98.542 L 183.005 98.603 183.005 93.191 L 183.005 87.778 187.113 87.840 L 191.221 87.901 191.221 93.191 M201.688 93.191 L 201.688 98.593 197.636 98.593 L 193.585 98.593 193.585 93.341 C 193.585 90.452,193.652 88.021,193.735 87.938 C 193.817 87.856,195.641 87.788,197.787 87.788 L 201.688 87.788 201.688 93.191 M212.268 93.191 L 212.268 98.593 208.216 98.593 L 204.164 98.593 204.164 93.341 C 204.164 90.452,204.232 88.021,204.314 87.938 C 204.397 87.856,206.220 87.788,208.366 87.788 L 212.268 87.788 212.268 93.191 M230.951 93.191 L 230.951 98.593 226.899 98.593 L 222.847 98.593 222.847 93.191 L 222.847 87.788 226.899 87.788 L 230.951 87.788 230.951 93.191 " stroke="none" fill="#f6f6f7" fill-rule="evenodd"></path><path id="path1" d="M0.225 112.549 L 0.225 225.098 200.113 225.098 L 400.000 225.098 400.000 112.549 L 400.000 0.000 200.113 0.000 L 0.225 0.000 0.225 112.549 M301.632 110.861 L 301.632 183.905 200.338 183.905 L 99.043 183.905 99.043 110.861 L 99.043 37.817 200.338 37.817 L 301.632 37.817 301.632 110.861 M193.810 93.191 L 193.810 98.368 197.636 98.368 L 201.463 98.368 201.463 93.191 L 201.463 88.014 197.636 88.014 L 193.810 88.014 193.810 93.191 M301.632 185.706 L 301.632 187.282 200.338 187.282 L 99.043 187.282 99.043 185.706 L 99.043 184.131 200.338 184.131 L 301.632 184.131 301.632 185.706 " stroke="none" fill="#e3ac24" fill-rule="evenodd"></path><path id="path2" d="M169.874 82.761 C 169.792 82.844,169.724 86.387,169.724 90.635 L 169.724 98.359 170.231 98.484 C 170.509 98.552,172.915 98.579,175.577 98.544 L 180.416 98.481 180.479 91.052 C 180.514 86.967,180.487 83.396,180.419 83.118 L 180.295 82.611 175.160 82.611 C 172.335 82.611,169.957 82.679,169.874 82.761 M215.119 82.986 C 215.037 83.069,214.969 86.563,214.969 90.752 L 214.969 98.368 217.445 98.368 L 219.921 98.368 219.921 90.602 L 219.921 82.836 217.595 82.836 C 216.316 82.836,215.202 82.904,215.119 82.986 M204.442 93.247 L 204.502 98.481 208.329 98.481 L 212.155 98.481 212.216 93.247 L 212.276 88.014 208.329 88.014 L 204.381 88.014 204.442 93.247 " stroke="none" fill="#388a9d" fill-rule="evenodd"></path><path id="path3" d="M183.230 93.191 L 183.230 98.368 187.057 98.368 L 190.884 98.368 190.884 93.191 L 190.884 88.014 187.057 88.014 L 183.230 88.014 183.230 93.191 M223.003 88.158 C 222.917 88.244,222.847 90.576,222.847 93.341 L 222.847 98.368 226.791 98.368 L 230.734 98.368 230.674 93.247 L 230.613 88.126 226.886 88.065 C 224.836 88.031,223.088 88.073,223.003 88.158 M99.043 185.706 L 99.043 187.282 200.338 187.282 L 301.632 187.282 301.632 185.706 L 301.632 184.131 200.338 184.131 L 99.043 184.131 99.043 185.706 " stroke="none" fill="#cc9c24" fill-rule="evenodd"></path><path id="path4" d="M99.095 48.115 C 99.123 53.779,99.176 56.261,99.212 53.630 L 99.277 48.846 103.319 48.846 L 107.361 48.846 107.423 45.189 L 107.485 41.531 129.544 41.531 L 151.604 41.531 151.666 45.189 L 151.728 48.846 226.567 48.846 L 301.407 48.846 301.407 116.263 L 301.407 183.680 200.348 183.680 L 99.290 183.680 99.210 182.273 L 99.130 180.867 99.087 182.386 L 99.043 183.905 200.338 183.905 L 301.632 183.905 301.632 110.861 L 301.632 37.817 200.338 37.817 L 99.043 37.817 99.095 48.115 M214.797 90.546 L 214.856 98.481 217.558 98.481 L 220.259 98.481 220.318 90.546 L 220.377 82.611 217.558 82.611 L 214.738 82.611 214.797 90.546 M219.921 90.602 L 219.921 98.368 217.445 98.368 L 214.969 98.368 214.969 90.752 C 214.969 86.563,215.037 83.069,215.119 82.986 C 215.202 82.904,216.316 82.836,217.595 82.836 L 219.921 82.836 219.921 90.602 M183.005 93.191 L 183.005 98.603 187.113 98.542 L 191.221 98.481 191.221 93.191 L 191.221 87.901 187.113 87.840 L 183.005 87.778 183.005 93.191 M193.735 87.938 C 193.652 88.021,193.585 90.452,193.585 93.341 L 193.585 98.593 197.636 98.593 L 201.688 98.593 201.688 93.191 L 201.688 87.788 197.787 87.788 C 195.641 87.788,193.817 87.856,193.735 87.938 M204.314 87.938 C 204.106 88.147,204.125 98.593,204.333 98.593 C 204.426 98.593,204.473 96.215,204.438 93.309 L 204.374 88.024 208.377 87.957 L 212.380 87.890 208.422 87.839 C 206.246 87.811,204.397 87.856,204.314 87.938 M222.847 87.957 C 222.847 88.050,224.595 88.126,226.730 88.126 L 230.613 88.126 230.674 93.242 L 230.734 98.358 226.735 98.425 L 222.735 98.492 226.843 98.542 L 230.951 98.593 230.951 93.191 L 230.951 87.788 226.899 87.788 C 224.671 87.788,222.847 87.864,222.847 87.957 M190.884 93.191 L 190.884 98.368 187.057 98.368 L 183.230 98.368 183.230 93.191 L 183.230 88.014 187.057 88.014 L 190.884 88.014 190.884 93.191 M201.463 93.191 L 201.463 98.368 197.636 98.368 L 193.810 98.368 193.810 93.191 L 193.810 88.014 197.636 88.014 L 201.463 88.014 201.463 93.191 " stroke="none" fill="#d1ccab" fill-rule="evenodd"></path></g></svg>