<svg id="svg" version="1.1" xmlns="http://www.w3.org/2000/svg" xmlns:xlink="http://www.w3.org/1999/xlink" width="400" height="225" viewBox="0, 0, 400,225"><g id="svgg"><path id="path0" d="M97.243 46.933 L 97.243 56.950 200.000 56.950 L 302.757 56.950 302.757 46.933 L 302.757 36.916 200.000 36.916 L 97.243 36.916 97.243 46.933 M97.243 127.406 L 97.243 185.031 200.000 185.031 L 302.757 185.031 302.757 127.406 L 302.757 69.781 200.000 69.781 L 97.243 69.781 97.243 127.406 M218.233 111.199 L 218.233 113.562 200.000 113.562 L 181.767 113.562 181.702 111.441 C 181.666 110.274,181.688 109.184,181.752 109.019 C 181.846 108.773,185.081 108.730,200.050 108.778 L 218.233 108.835 218.233 111.199 M214.969 136.072 L 214.969 142.487 200.000 142.487 L 185.031 142.487 185.031 136.222 C 185.031 132.776,185.098 129.889,185.181 129.807 C 185.264 129.724,192.000 129.657,200.150 129.657 L 214.969 129.657 214.969 136.072 " stroke="none" fill="#f6f5f7" fill-rule="evenodd"></path><path id="path1" d="M0.000 112.549 L 0.000 225.098 200.000 225.098 L 400.000 225.098 400.000 112.549 L 400.000 0.000 200.000 0.000 L 0.000 0.000 0.000 112.549 M302.927 110.918 L 302.983 185.031 200.057 184.975 L 97.130 184.918 97.088 111.086 C 97.065 70.478,97.087 37.127,97.137 36.972 C 97.210 36.747,117.904 36.702,200.049 36.747 L 302.870 36.804 302.927 110.918 M185.031 136.072 L 185.031 142.262 200.000 142.262 L 214.969 142.262 214.969 136.072 L 214.969 129.882 200.000 129.882 L 185.031 129.882 185.031 136.072 " stroke="none" fill="#2473ab" fill-rule="evenodd"></path><path id="path2" d="M97.243 63.365 L 97.243 69.781 200.000 69.781 L 302.757 69.781 302.757 63.365 L 302.757 56.950 200.000 56.950 L 97.243 56.950 97.243 63.365 M150.985 64.094 L 149.024 66.054 148.119 65.170 C 147.622 64.684,147.214 64.105,147.214 63.882 C 147.214 63.335,147.940 63.362,148.452 63.928 C 149.044 64.581,149.163 64.528,150.765 62.894 C 152.103 61.530,152.250 61.439,152.583 61.772 C 152.915 62.104,152.786 62.293,150.985 64.094 M244.232 63.703 L 244.232 65.055 200.056 64.998 L 155.881 64.941 155.810 63.958 C 155.771 63.418,155.794 62.836,155.859 62.664 C 155.961 62.400,162.709 62.352,200.105 62.352 L 244.232 62.352 244.232 63.703 M192.628 129.825 C 196.745 129.860,203.481 129.860,207.597 129.825 C 211.714 129.791,208.346 129.763,200.113 129.763 C 191.880 129.763,188.512 129.791,192.628 129.825 M192.532 142.431 C 196.719 142.465,203.506 142.465,207.613 142.431 C 211.721 142.397,208.295 142.369,200.000 142.369 C 191.705 142.369,188.344 142.397,192.532 142.431 " stroke="none" fill="#64bc7d" fill-rule="evenodd"></path><path id="path3" d="M150.765 62.894 C 149.163 64.528,149.044 64.581,148.452 63.928 C 147.940 63.362,147.214 63.335,147.214 63.882 C 147.214 64.105,147.622 64.684,148.119 65.170 L 149.024 66.054 150.985 64.094 C 152.786 62.293,152.915 62.104,152.583 61.772 C 152.250 61.439,152.103 61.530,150.765 62.894 M155.859 62.664 C 155.794 62.836,155.771 63.418,155.810 63.958 L 155.881 64.941 200.056 64.998 L 244.232 65.055 244.232 63.703 L 244.232 62.352 200.105 62.352 C 162.709 62.352,155.961 62.400,155.859 62.664 " stroke="none" fill="#0ca557" fill-rule="evenodd"></path><path id="path4" d="M97.121 36.972 C 97.061 37.127,97.040 41.711,97.074 47.158 L 97.135 57.062 97.189 46.989 L 97.243 36.916 200.000 36.916 L 302.757 36.916 302.814 110.917 L 302.871 184.918 302.871 110.861 L 302.870 36.804 200.049 36.747 C 117.911 36.702,97.207 36.747,97.121 36.972 M97.128 127.293 C 97.128 158.987,97.154 171.919,97.186 156.031 C 97.218 140.144,97.218 114.212,97.186 98.406 C 97.154 82.600,97.128 95.599,97.128 127.293 M181.752 109.019 C 181.688 109.184,181.666 110.274,181.702 111.441 L 181.767 113.562 200.000 113.562 L 218.233 113.562 218.233 111.199 L 218.233 108.835 200.050 108.778 C 185.081 108.730,181.846 108.773,181.752 109.019 " stroke="none" fill="#6a8190" fill-rule="evenodd"></path></g></svg>